<mxfile host="app.diagrams.net" modified="2023-09-25T04:13:27.725Z" agent="Mozilla/5.0 (Windows NT 10.0; Win64; x64) AppleWebKit/537.36 (KHTML, like Gecko) Chrome/117.0.0.0 Safari/537.36" etag="eQvEZcgBVfFWa7c5EUko" version="21.8.0" type="github">
  <diagram name="Página-1" id="gRXDlY3UGHP8YEdrTEjd">
    <mxGraphModel dx="1434" dy="782" grid="1" gridSize="10" guides="1" tooltips="1" connect="1" arrows="1" fold="1" page="1" pageScale="1" pageWidth="827" pageHeight="1169" math="0" shadow="0">
      <root>
        <mxCell id="0" />
        <mxCell id="1" parent="0" />
        <mxCell id="kSfuAsox5lGF9C4WUeHD-1" value="IPhone" style="swimlane;fontStyle=2;align=center;verticalAlign=top;childLayout=stackLayout;horizontal=1;startSize=26;horizontalStack=0;resizeParent=1;resizeLast=0;collapsible=1;marginBottom=0;rounded=0;shadow=0;strokeWidth=1;" vertex="1" parent="1">
          <mxGeometry x="320" y="90" width="160" height="60" as="geometry">
            <mxRectangle x="230" y="140" width="160" height="26" as="alternateBounds" />
          </mxGeometry>
        </mxCell>
        <mxCell id="kSfuAsox5lGF9C4WUeHD-2" value="" style="line;html=1;strokeWidth=1;align=left;verticalAlign=middle;spacingTop=-1;spacingLeft=3;spacingRight=3;rotatable=0;labelPosition=right;points=[];portConstraint=eastwest;" vertex="1" parent="kSfuAsox5lGF9C4WUeHD-1">
          <mxGeometry y="26" width="160" height="8" as="geometry" />
        </mxCell>
        <mxCell id="kSfuAsox5lGF9C4WUeHD-3" value="&lt;&lt;interface&gt;&gt;&#xa;Reprodutor Musical" style="swimlane;fontStyle=0;align=center;verticalAlign=top;childLayout=stackLayout;horizontal=1;startSize=40;horizontalStack=0;resizeParent=1;resizeLast=0;collapsible=1;marginBottom=0;rounded=0;shadow=0;strokeWidth=1;" vertex="1" parent="1">
          <mxGeometry x="120" y="350" width="160" height="122" as="geometry">
            <mxRectangle x="130" y="380" width="160" height="26" as="alternateBounds" />
          </mxGeometry>
        </mxCell>
        <mxCell id="kSfuAsox5lGF9C4WUeHD-4" value="" style="line;html=1;strokeWidth=1;align=left;verticalAlign=middle;spacingTop=-1;spacingLeft=3;spacingRight=3;rotatable=0;labelPosition=right;points=[];portConstraint=eastwest;" vertex="1" parent="kSfuAsox5lGF9C4WUeHD-3">
          <mxGeometry y="40" width="160" height="8" as="geometry" />
        </mxCell>
        <mxCell id="kSfuAsox5lGF9C4WUeHD-5" value="+tocar(): void" style="text;align=left;verticalAlign=top;spacingLeft=4;spacingRight=4;overflow=hidden;rotatable=0;points=[[0,0.5],[1,0.5]];portConstraint=eastwest;fontStyle=4" vertex="1" parent="kSfuAsox5lGF9C4WUeHD-3">
          <mxGeometry y="48" width="160" height="26" as="geometry" />
        </mxCell>
        <mxCell id="kSfuAsox5lGF9C4WUeHD-6" value="+pausar(): void&#xa;+selecionarMusica(): void" style="text;align=left;verticalAlign=top;spacingLeft=4;spacingRight=4;overflow=hidden;rotatable=0;points=[[0,0.5],[1,0.5]];portConstraint=eastwest;" vertex="1" parent="kSfuAsox5lGF9C4WUeHD-3">
          <mxGeometry y="74" width="160" height="48" as="geometry" />
        </mxCell>
        <mxCell id="kSfuAsox5lGF9C4WUeHD-7" value="" style="endArrow=block;endSize=10;endFill=0;shadow=0;strokeWidth=1;rounded=0;edgeStyle=elbowEdgeStyle;elbow=vertical;" edge="1" parent="1" source="kSfuAsox5lGF9C4WUeHD-3">
          <mxGeometry width="160" relative="1" as="geometry">
            <mxPoint x="200" y="203" as="sourcePoint" />
            <mxPoint x="360" y="160" as="targetPoint" />
          </mxGeometry>
        </mxCell>
        <mxCell id="kSfuAsox5lGF9C4WUeHD-8" value="&lt;&lt;interface&gt;&gt;&#xa;Aparelho Telefônico" style="swimlane;fontStyle=0;align=center;verticalAlign=top;childLayout=stackLayout;horizontal=1;startSize=40;horizontalStack=0;resizeParent=1;resizeLast=0;collapsible=1;marginBottom=0;rounded=0;shadow=0;strokeWidth=1;" vertex="1" parent="1">
          <mxGeometry x="330" y="350" width="160" height="120" as="geometry">
            <mxRectangle x="130" y="380" width="160" height="26" as="alternateBounds" />
          </mxGeometry>
        </mxCell>
        <mxCell id="kSfuAsox5lGF9C4WUeHD-9" value="" style="line;html=1;strokeWidth=1;align=left;verticalAlign=middle;spacingTop=-1;spacingLeft=3;spacingRight=3;rotatable=0;labelPosition=right;points=[];portConstraint=eastwest;" vertex="1" parent="kSfuAsox5lGF9C4WUeHD-8">
          <mxGeometry y="40" width="160" height="8" as="geometry" />
        </mxCell>
        <mxCell id="kSfuAsox5lGF9C4WUeHD-10" value="+ligar(): void" style="text;align=left;verticalAlign=top;spacingLeft=4;spacingRight=4;overflow=hidden;rotatable=0;points=[[0,0.5],[1,0.5]];portConstraint=eastwest;fontStyle=4" vertex="1" parent="kSfuAsox5lGF9C4WUeHD-8">
          <mxGeometry y="48" width="160" height="26" as="geometry" />
        </mxCell>
        <mxCell id="kSfuAsox5lGF9C4WUeHD-11" value="+atender(): void&#xa;+iniciarCorreioVoz: void" style="text;align=left;verticalAlign=top;spacingLeft=4;spacingRight=4;overflow=hidden;rotatable=0;points=[[0,0.5],[1,0.5]];portConstraint=eastwest;" vertex="1" parent="kSfuAsox5lGF9C4WUeHD-8">
          <mxGeometry y="74" width="160" height="42" as="geometry" />
        </mxCell>
        <mxCell id="kSfuAsox5lGF9C4WUeHD-12" value="&lt;&lt;interface&gt;&gt;&#xa;Navegador de Internet" style="swimlane;fontStyle=0;align=center;verticalAlign=top;childLayout=stackLayout;horizontal=1;startSize=40;horizontalStack=0;resizeParent=1;resizeLast=0;collapsible=1;marginBottom=0;rounded=0;shadow=0;strokeWidth=1;" vertex="1" parent="1">
          <mxGeometry x="580" y="350" width="160" height="120" as="geometry">
            <mxRectangle x="130" y="380" width="160" height="26" as="alternateBounds" />
          </mxGeometry>
        </mxCell>
        <mxCell id="kSfuAsox5lGF9C4WUeHD-13" value="" style="line;html=1;strokeWidth=1;align=left;verticalAlign=middle;spacingTop=-1;spacingLeft=3;spacingRight=3;rotatable=0;labelPosition=right;points=[];portConstraint=eastwest;" vertex="1" parent="kSfuAsox5lGF9C4WUeHD-12">
          <mxGeometry y="40" width="160" height="8" as="geometry" />
        </mxCell>
        <mxCell id="kSfuAsox5lGF9C4WUeHD-14" value="+exibirPagina(): void" style="text;align=left;verticalAlign=top;spacingLeft=4;spacingRight=4;overflow=hidden;rotatable=0;points=[[0,0.5],[1,0.5]];portConstraint=eastwest;fontStyle=4" vertex="1" parent="kSfuAsox5lGF9C4WUeHD-12">
          <mxGeometry y="48" width="160" height="26" as="geometry" />
        </mxCell>
        <mxCell id="kSfuAsox5lGF9C4WUeHD-15" value="+adicionarNovaAba(): void&#xa;+atualizarPagina(): void" style="text;align=left;verticalAlign=top;spacingLeft=4;spacingRight=4;overflow=hidden;rotatable=0;points=[[0,0.5],[1,0.5]];portConstraint=eastwest;" vertex="1" parent="kSfuAsox5lGF9C4WUeHD-12">
          <mxGeometry y="74" width="160" height="42" as="geometry" />
        </mxCell>
        <mxCell id="kSfuAsox5lGF9C4WUeHD-16" value="" style="endArrow=block;endSize=10;endFill=0;shadow=0;strokeWidth=1;rounded=0;edgeStyle=elbowEdgeStyle;elbow=vertical;" edge="1" parent="1" source="kSfuAsox5lGF9C4WUeHD-8">
          <mxGeometry width="160" relative="1" as="geometry">
            <mxPoint x="420" y="350" as="sourcePoint" />
            <mxPoint x="400" y="150" as="targetPoint" />
          </mxGeometry>
        </mxCell>
        <mxCell id="kSfuAsox5lGF9C4WUeHD-17" value="" style="endArrow=block;endSize=10;endFill=0;shadow=0;strokeWidth=1;rounded=0;edgeStyle=elbowEdgeStyle;elbow=vertical;exitX=0.5;exitY=0;exitDx=0;exitDy=0;" edge="1" parent="1" source="kSfuAsox5lGF9C4WUeHD-12">
          <mxGeometry width="160" relative="1" as="geometry">
            <mxPoint x="597" y="360" as="sourcePoint" />
            <mxPoint x="450" y="150" as="targetPoint" />
            <Array as="points">
              <mxPoint x="687" y="300" />
            </Array>
          </mxGeometry>
        </mxCell>
      </root>
    </mxGraphModel>
  </diagram>
</mxfile>
